{"title":"Doctor Who 2005 S08E02 Into the Dalek 720p  X265","uid":11045654,"size":442035407,"categoryP":"video","categoryS":"hd___tv_shows","magnet":"?xt=urn:btih:8741dd4b88a30ed971c729dc966e2ccd9c256c35&amp;dn=Doctor+Who+2005+S08E02+Into+the+Dalek+720p++X265&amp;tr=udp%3A%2F%2Ftracker.openbittorrent.com%3A80&amp;tr=udp%3A%2F%2Fopen.demonii.com%3A1337&amp;tr=udp%3A%2F%2Ftracker.coppersurfer.tk%3A6969&amp;tr=udp%3A%2F%2Fexodus.desync.com%3A6969","seeders":0,"leechers":0,"uploader":"atm50","files":-1,"time":1410938712,"description":"The Doctor and Clara find themselves inside of a supposedly good Dalek.\n\n\nFormat                         : Matroska\nFile size                      : 422 MiB\nDuration                       : 46mn 18s\nOverall bit rate               : 1 273 Kbps\n\nVideo\n\nFormat                         : HEVC [X265]\nBit rate                       : 991 Kbps\nWidth                          : 1280 pixels\nHeight                         : 720 pixels\nDisplay aspect ratio           : 16:9\nFrame rate                     : 25.000 fps\nStream size                    : 328 MiB (78%)\n\nAudio\n\nFormat                         : AC-3\nBit rate                       : 256 Kbps\nChannel(s)                     : 6 channels (5.1)\nSampling rate                  : 48.0 KHz\nBit depth                      : 16 bits\nCompression mode               : Lossy\nStream size                    : 84.8 MiB (20%)\n\nSubtitles: English by GoldenBeard from subscene","torrent":{"xt":"urn:btih:8741dd4b88a30ed971c729dc966e2ccd9c256c35","amp;dn":"Doctor+Who+2005+S08E02+Into+the+Dalek+720p++X265","amp;tr":["udp%3A%2F%2Ftracker.openbittorrent.com%3A80","udp%3A%2F%2Fopen.demonii.com%3A1337","udp%3A%2F%2Ftracker.coppersurfer.tk%3A6969","udp%3A%2F%2Fexodus.desync.com%3A6969"],"infoHash":"8741dd4b88a30ed971c729dc966e2ccd9c256c35","infoHashBuffer":{"type":"Buffer","data":[135,65,221,75,136,163,14,217,113,199,41,220,150,110,44,205,156,37,108,53]},"announce":[],"urlList":[]}}